<?xml version="1.0" encoding="UTF-8"?>
<svg width="50px" height="50px" viewBox="0 0 50 50" version="1.1" xmlns="http://www.w3.org/2000/svg" xmlns:xlink="http://www.w3.org/1999/xlink">
    <!-- Generator: Sketch 43.1 (39012) - http://www.bohemiancoding.com/sketch -->
    <title>Group 6</title>
    <desc>Created with Sketch.</desc>
    <defs></defs>
    <g id="Page-1" stroke="none" stroke-width="1" fill="none" fill-rule="evenodd">
        <g id="Desktop" transform="translate(-117.000000, -373.000000)" fill="#66B110">
            <g id="Group-6" transform="translate(117.000000, 373.000000)">
                <path d="M38.7499843,15.5363288 L37.5422329,14.2637958 C37.2087366,13.9120681 36.6679778,13.9120681 36.3344815,14.2637958 L20.7539769,30.6849728 C20.4204806,31.0367006 19.8797219,31.0367006 19.5462256,30.6849728 L12.6664779,23.4339698 C12.3329816,23.082242 11.7913699,23.082242 11.4587266,23.4339698 L10.2501222,24.7065028 C9.91662592,25.0582305 9.91662592,25.6282099 10.2501222,25.9799376 L18.9210266,35.1176444 C19.5871663,35.8201981 20.6678308,35.8211 21.3356764,35.1194482 L38.7491313,16.8106655 C39.0834806,16.4589378 39.0834806,15.8880566 38.7499843,15.5363288" id="Icon"></path>
                <path d="M25,50 C11.1928813,50 0,38.8071187 0,25 C0,11.1928813 11.1928813,0 25,0 C38.8071187,0 50,11.1928813 50,25 C50,38.8071187 38.8071187,50 25,50 Z M25,45 C36.045695,45 45,36.045695 45,25 C45,13.954305 36.045695,5 25,5 C13.954305,5 5,13.954305 5,25 C5,36.045695 13.954305,45 25,45 Z" id="Combined-Shape"></path>
            </g>
        </g>
    </g>
</svg>